<svg id="Layer_1" data-name="Layer 1" xmlns="http://www.w3.org/2000/svg" viewBox="0 0 300 118.71"><defs><style>.cls-1{fill:#005695;}.cls-2{fill:#fff;}.cls-3,.cls-4{fill:none;}.cls-4{stroke:#005695;stroke-width:0.45px;}</style></defs><title>Insinkerator</title><path class="cls-1" d="M254.68,442.05c-32.18,0-58.27-26.57-58.27-59.35s26.09-59.36,58.27-59.36S313,349.92,313,382.7s-26.09,59.35-58.27,59.35Z" transform="translate(-157.25 -323.34)" /><path class="cls-1" d="M160.48,364.71a3.29,3.29,0,1,1,3.23-3.29,3.28,3.28,0,0,1-3.23,3.29Z" transform="translate(-157.25 -323.34)" /><polygon class="cls-1" points="5.61 76.53 0.84 76.53 0.84 50.77 5.61 50.77 5.61 76.53 5.61 76.53" /><path class="cls-1" d="M186.69,399.87V384.52c0-4.55-2.15-6.74-6.16-6.74-4.53,0-7.52,2.9-7.52,7.83v14.26h-4.69V374.11H173v4.14c1.61-3.13,4.84-4.77,8.68-4.77,5.54,0,9.69,3.59,9.69,10.57v15.82Z" transform="translate(-157.25 -323.34)" /><path class="cls-2" d="M218.89,377.55c-2.53,0-4,1.25-4,2.89,0,2.28,1.62,2.9,5.54,3.92,5.38,1.41,8.76,3.68,8.76,8.39s-3.61,7.74-9.61,7.74a12.33,12.33,0,0,1-10.83-5.79l3.38-2.43a8.28,8.28,0,0,0,7.45,4.15c3.23,0,5.08-1.34,5.08-3.44,0-2.27-1.76-3.22-6.15-4.47-5-1.41-8-3.37-8-7.91,0-4.22,3.3-7.12,8.3-7.12a10.09,10.09,0,0,1,8.69,4.15l-3.16,2.66a6.34,6.34,0,0,0-5.46-2.74Z" transform="translate(-157.25 -323.34)" /><path class="cls-2" d="M237,364.71a3.29,3.29,0,1,1,3.23-3.29,3.28,3.28,0,0,1-3.23,3.29Z" transform="translate(-157.25 -323.34)" /><polygon class="cls-2" points="82.09 76.53 77.32 76.53 77.32 50.77 82.09 50.77 82.09 76.53 82.09 76.53" /><path class="cls-2" d="M265.25,399.87V384.52c0-4.55-2.16-6.74-6.16-6.74-4.53,0-7.53,2.9-7.53,7.83v14.26h-4.69V374.11h4.69v4.14c1.61-3.13,4.84-4.77,8.68-4.77,5.55,0,9.68,3.59,9.68,10.57v15.82Z" transform="translate(-157.25 -323.34)" /><path class="cls-2" d="M299.76,399.87h-5.85l-8.38-11.12c0-.08-2.3,2.65-3.69,4.23v6.89h-4.69v-55.6h4.69v42.52l10.77-12.68h5.52l-9.52,11,11.15,14.73Z" transform="translate(-157.25 -323.34)" /><path class="cls-1" d="M330.18,396.42c-4.92,0-8.14-2.9-8.82-7.67h21.2c.16-8.86-4.76-15.27-12.83-15.27A13.23,13.23,0,0,0,316.43,387c0,7.68,5.61,13.47,13.83,13.47,5,0,8.46-1.72,10.77-4.54l-2.92-2.9A9.65,9.65,0,0,1,330.18,396.42Zm-.45-18.87c4.77,0,7.3,3.13,7.92,7.2H321.51C322.27,380.37,325.35,377.55,329.73,377.55Z" transform="translate(-157.25 -323.34)" /><path class="cls-1" d="M361.09,378.57a6.07,6.07,0,0,0-3.15-.71c-3.78,0-6.61,3.14-6.61,8.38v13.63h-4.7V374.11h4.7v4.31a8.07,8.07,0,0,1,7.38-4.94,6.91,6.91,0,0,1,4,1l-1.61,4.08Z" transform="translate(-157.25 -323.34)" /><path class="cls-1" d="M373.39,373.48a12,12,0,0,0-10.3,5.09l3,2.66a8.16,8.16,0,0,1,7.15-3.68c3.61,0,5.92,1.72,5.92,6.5v.23h-7.61c-5.37,0-9.91,2.67-9.91,7.9,0,5.65,4.3,8.31,9.61,8.31a9.68,9.68,0,0,0,7.91-3.52v2.9h4.69V384.05C383.84,376.92,379.84,373.48,373.39,373.48Zm5.76,17.46c0,3.6-3.38,5.64-7.15,5.64-3.54,0-5.68-1.5-5.68-4.4s2.46-4.06,5.53-4.06h7.3Z" transform="translate(-157.25 -323.34)" /><path class="cls-1" d="M394.69,392.9c0,2.35.83,3.44,2.67,3.44a4.57,4.57,0,0,0,2.78-1.09l2,3.36a7.65,7.65,0,0,1-5.3,1.88c-4.15,0-6.84-2.27-6.84-7.36v-15h-3.31v-4.06H390V358.05h4.7v16.06H401v4.06h-6.29V392.9Z" transform="translate(-157.25 -323.34)" /><path class="cls-1" d="M415.59,373.48A13.51,13.51,0,1,0,429,387,13.27,13.27,0,0,0,415.59,373.48Zm0,22.94c-5.07,0-8.54-4.08-8.54-9.4s3.47-9.47,8.54-9.47,8.53,4.07,8.53,9.47S420.66,396.42,415.59,396.42Z" transform="translate(-157.25 -323.34)" /><path class="cls-1" d="M447.1,378.57a6.12,6.12,0,0,0-3.15-.71c-3.77,0-6.61,3.14-6.61,8.38v13.63h-4.69V374.11h4.69v4.31a8.05,8.05,0,0,1,7.37-4.94,7,7,0,0,1,4,1l-1.61,4.08Z" transform="translate(-157.25 -323.34)" /><path class="cls-3" d="M456.22,379.71a3.52,3.52,0,1,1,0-5,3.32,3.32,0,0,1,1,2.48,3.37,3.37,0,0,1-1,2.5Z" transform="translate(-157.25 -323.34)" /><path class="cls-4" d="M455.87,375.07a3,3,0,0,0-5.18,2.15,3,3,0,1,0,6.06,0,2.93,2.93,0,0,0-.88-2.15Z" transform="translate(-157.25 -323.34)" /><path class="cls-1" d="M455.27,378.89c0-.1,0-.2,0-.29v-.28a1.16,1.16,0,0,0-.2-.61,1,1,0,0,0-.66-.38,1.54,1.54,0,0,0,.55-.18.84.84,0,0,0,.38-.77,1,1,0,0,0-.6-1,3.06,3.06,0,0,0-1.06-.14H452.3v3.88H453v-1.53h.54a1.69,1.69,0,0,1,.76.12,1,1,0,0,1,.37.9v.43s0,0,0,0a.06.06,0,0,0,0,0h.63l0-.05A.56.56,0,0,1,455.27,378.89Zm-1-1.85a1.86,1.86,0,0,1-.66.09H453v-1.39h.59a1.74,1.74,0,0,1,.83.14.57.57,0,0,1,.26.56A.58.58,0,0,1,454.27,377Z" transform="translate(-157.25 -323.34)" /></svg>